<svg width="49" height="48" viewBox="0 0 49 48" fill="none" xmlns="http://www.w3.org/2000/svg">
<path d="M24.2781 0C11.1634 0 0.525391 10.638 0.525391 23.7527C0.525391 36.8674 11.1634 47.5054 24.2781 47.5054C37.3928 47.5054 48.0308 36.8674 48.0308 23.7527C48.0308 10.638 37.3928 0 24.2781 0ZM39.115 23.7756C39.115 23.7756 39.115 28.5917 38.5054 30.9159C38.1624 32.1885 37.1642 33.1867 35.8916 33.5297C33.5673 34.1393 24.2781 34.1393 24.2781 34.1393C24.2781 34.1393 15.0117 34.1393 12.6647 33.5068C11.392 33.1639 10.3938 32.1656 10.0509 30.893C9.44123 28.5917 9.44123 23.7527 9.44123 23.7527C9.44123 23.7527 9.44123 18.9366 10.0509 16.6124C10.3938 15.3398 11.4225 14.3111 12.6647 13.9758C14.9889 13.3661 24.2781 13.3661 24.2781 13.3661C24.2781 13.3661 33.5673 13.3661 35.8916 13.9986C37.1642 14.3416 38.1624 15.3398 38.5054 16.6124C39.1378 18.9366 39.115 23.7756 39.115 23.7756Z" fill="#09918C"/>
</svg>
