<svg width="46" height="48" viewBox="0 0 46 48" fill="none" xmlns="http://www.w3.org/2000/svg">
<path d="M23 0.464844C10.3009 0.464844 0 10.9897 0 23.9648C0 36.94 10.3009 47.4648 23 47.4648C35.6991 47.4648 46 36.94 46 23.9648C46 10.9897 35.6991 0.464844 23 0.464844ZM33.5002 18.7853C33.5075 19.0191 33.5149 19.2452 33.5149 19.479C33.5149 26.6036 28.2021 34.8214 18.4989 34.8214C15.5178 34.8214 12.7433 33.9318 10.4042 32.4013C10.8175 32.4541 11.238 32.4767 11.666 32.4767C14.138 32.4767 16.418 31.6172 18.2185 30.1697C15.9089 30.1245 13.9609 28.5638 13.2894 26.4227C13.6141 26.483 13.9387 26.5207 14.2782 26.5207C14.7578 26.5207 15.23 26.4528 15.6728 26.3322C13.2599 25.8346 11.4373 23.6557 11.4373 21.0471C11.4373 21.0245 11.4373 21.0019 11.4373 20.9793C12.1457 21.3864 12.9647 21.6277 13.828 21.6503C12.4113 20.6852 11.4816 19.0341 11.4816 17.1644C11.4816 16.1767 11.7398 15.2494 12.1973 14.4502C14.8021 17.7148 18.6907 19.8635 23.0812 20.0821C22.9926 19.6901 22.941 19.2754 22.941 18.8532C22.941 15.8752 25.3022 13.4626 28.2169 13.4626C29.7369 13.4626 31.1094 14.1185 32.0687 15.1665C33.2714 14.9252 34.4004 14.4729 35.4187 13.8546C35.0202 15.1137 34.1864 16.1692 33.0943 16.8402C34.1643 16.712 35.1825 16.418 36.127 15.9883C35.426 17.0739 34.5258 18.0239 33.5002 18.7853Z" fill="#09918C"/>
</svg>
