<svg width="45" height="45" viewBox="0 0 45 45" fill="none" xmlns="http://www.w3.org/2000/svg">
<path d="M22.3318 0.34375C10.0193 0.34375 0.0371094 10.3259 0.0371094 22.6385C0.0371094 34.951 10.0193 44.9332 22.3318 44.9332C34.6444 44.9332 44.6266 34.951 44.6266 22.6385C44.6266 10.3259 34.6444 0.34375 22.3318 0.34375ZM35.0582 27.9236C34.9928 29.2884 34.7823 30.2177 34.4629 31.0308C33.795 32.7513 32.4374 34.1089 30.7169 34.7768C29.9038 35.0962 28.9745 35.3068 27.6097 35.3721C26.2448 35.4374 25.8092 35.452 22.3318 35.452C18.8544 35.452 18.4188 35.4374 17.054 35.3721C15.6891 35.3068 14.7599 35.0962 13.9468 34.7768C13.0901 34.4574 12.3206 33.9492 11.6818 33.3031C11.0284 32.6642 10.5275 31.8874 10.208 31.038C9.8886 30.2249 9.67806 29.2957 9.61272 27.9308C9.54739 26.566 9.53287 26.1304 9.53287 22.653C9.53287 19.1756 9.54739 18.74 9.61272 17.3751C9.67806 16.0103 9.8886 15.0811 10.208 14.268C10.5275 13.4113 11.0356 12.6418 11.6818 12.0029C12.3206 11.3495 13.0974 10.8486 13.9468 10.5292C14.7599 10.2098 15.6891 9.99923 17.054 9.93389C18.4188 9.86856 18.8544 9.85404 22.3318 9.85404C25.8092 9.85404 26.2448 9.86856 27.6097 9.93389C28.9745 9.99923 29.9038 10.2098 30.7169 10.5292C31.5735 10.8486 32.343 11.3568 32.9819 12.0029C33.6353 12.6418 34.1362 13.4186 34.4556 14.268C34.7751 15.0811 34.9856 16.0103 35.0509 17.3751C35.1163 18.74 35.1308 19.1756 35.1308 22.653C35.1308 26.1304 35.1163 26.5587 35.0582 27.9236Z" fill="#09918C"/>
</svg>
