<svg width="46" height="48" viewBox="0 0 46 48" fill="none" xmlns="http://www.w3.org/2000/svg">
<path d="M46 23.9648C46 10.9897 35.7048 0.464844 22.9963 0.464844C10.2878 0.464844 0 10.9822 0 23.9648C0 36.9475 10.2952 47.4648 23.0037 47.4648C23.1365 47.4648 23.2768 47.4648 23.4096 47.4573V29.1745H18.4649V23.2938H23.4096V18.9587C23.4096 13.9376 26.4133 11.2008 30.797 11.2008C32.9004 11.2008 34.7085 11.3591 35.2251 11.427V16.6743H32.2066C29.8229 16.6743 29.3579 17.8279 29.3579 19.5317V23.2788H35.0627L34.3173 29.1594H29.3579V46.5526C38.9668 43.7329 46 34.6933 46 23.9648Z" fill="#09918C"/>
</svg>
