<svg width="46" height="48" viewBox="0 0 46 48" fill="none" xmlns="http://www.w3.org/2000/svg">
<path d="M23 0.464844C10.3009 0.464844 0 10.9897 0 23.9648C0 36.94 10.3009 47.4648 23 47.4648C35.6991 47.4648 46 36.94 46 23.9648C46 10.9897 35.6991 0.464844 23 0.464844ZM16.3147 35.99H10.7141V18.7703H16.3147V35.99ZM13.5107 16.418H13.4739C11.5922 16.418 10.3821 15.0986 10.3821 13.4475C10.3821 11.7587 11.6365 10.4695 13.5476 10.4695C15.4588 10.4695 16.6394 11.7512 16.6763 13.4475C16.6837 15.0986 15.4662 16.418 13.5107 16.418ZM36.5107 35.99H30.9102V26.777C30.9102 24.4624 30.0985 22.8867 28.0693 22.8867C26.5197 22.8867 25.5974 23.9498 25.1989 24.9826C25.0513 25.3521 25.0144 25.8647 25.0144 26.3774V35.99H19.4139C19.4139 35.99 19.4876 20.3912 19.4139 18.7703H25.0144V21.2055C25.7597 20.0293 27.0879 18.3631 30.0616 18.3631C33.7437 18.3631 36.5107 20.821 36.5107 26.1135V35.99Z" fill="#09918C"/>
</svg>
