<svg width="31" height="31" viewBox="0 0 31 31" fill="none" xmlns="http://www.w3.org/2000/svg">
<circle cx="15.4588" cy="15.4588" r="14.4588" stroke="#18938D" stroke-width="2"/>
<path d="M15.664 10.912C15.124 10.912 14.68 10.756 14.332 10.444C13.996 10.12 13.828 9.724 13.828 9.256C13.828 8.776 13.996 8.38 14.332 8.068C14.68 7.744 15.124 7.582 15.664 7.582C16.192 7.582 16.624 7.744 16.96 8.068C17.308 8.38 17.482 8.776 17.482 9.256C17.482 9.724 17.308 10.12 16.96 10.444C16.624 10.756 16.192 10.912 15.664 10.912ZM17.194 11.956V22H14.116V11.956H17.194Z" fill="#18938D"/>
</svg>
